# xmcd
#
# Track frame offsets:
#	150
#	13614
#	31351
#	46705
#	62684
#	76816
#	90549
#	102177
#	116147
#	128387
#	142089
#	153974
#	166161
#	184939
#	194405
#	210527
#	225522
#	236997
#
# Disc length: 3404 seconds
#
# Revision: 1
# Processed by: cddbd v1.5.2PL0 Copyright (c) Steve Scherf et al.
# Submitted via: audiograbber 1.83.01
#
DISCID=e40d4a12
DTITLE=Johnny McCauley - Memory Store
DYEAR=1900
DGENRE=
TTITLE0=My Own Granard Home
TTITLE1=Rose Of The Mountain
TTITLE2=Any Tipperary Town
TTITLE3=My Donegal Shore
TTITLE4=Four Country Roads
TTITLE5=Hometown On The Foyle
TTITLE6=Destination Donegal
TTITLE7=Everybody's Getting Older
TTITLE8=My Crazy Heart
TTITLE9=Your Memory Store
TTITLE10=Among The Wicklow Hills
TTITLE11=Where The Errigal Shadow Falls
TTITLE12=Whispering Shannon
TTITLE13=My Own Washing
TTITLE14=Tears On The Window Pane
TTITLE15=Just Pretending
TTITLE16=Pretty Girl From Omagh
TTITLE17=5,000 Miles From Sligo
EXTD=
EXTT0=
EXTT1=
EXTT2=
EXTT3=
EXTT4=
EXTT5=
EXTT6=
EXTT7=
EXTT8=
EXTT9=
EXTT10=
EXTT11=
EXTT12=
EXTT13=
EXTT14=
EXTT15=
EXTT16=
EXTT17=
PLAYORDER=
